<svg xmlns="http://www.w3.org/2000/svg" xmlns:xlink="http://www.w3.org/1999/xlink" viewBox="0 0 170.48 60.3"><defs><style>.a{fill:url(#a);}.b{fill:url(#b);}.c{fill:url(#c);}.d{fill:url(#d);}.e{fill:url(#e);}.f{fill:url(#f);}.g{fill:url(#g);}.h{fill:url(#h);}.i{fill:#276193;}.i,.j,.p,.q{fill-rule:evenodd;}.j{fill:url(#i);}.k{fill:#fff;}.l{fill:url(#j);}.m{fill:url(#k);}.n{fill:url(#l);}.o{fill:url(#m);}.p{fill:url(#n);}.q{fill:url(#o);}.r{fill:#535d61;}.s{fill:none;}.t{isolation:isolate;}</style><linearGradient id="a" x1="11.13" y1="16.9" x2="11.13" y2="30.3" gradientTransform="matrix(1, 0, 0, -1, 0.21, 50.6)" gradientUnits="userSpaceOnUse"><stop offset="0" stop-color="#00426a"/><stop offset="0.04" stop-color="#004872"/><stop offset="0.12" stop-color="#00517e"/><stop offset="0.22" stop-color="#185888"/><stop offset="0.35" stop-color="#245d8f"/><stop offset="0.52" stop-color="#2a6093"/><stop offset="1" stop-color="#2c6194"/></linearGradient><linearGradient id="b" x1="27.18" y1="4.78" x2="27.38" y2="16.03" gradientTransform="matrix(1, 0, 0, -1, 3.4, 38.89)" xlink:href="#a"/><linearGradient id="c" x1="49.93" y1="16.91" x2="49.93" y2="30.3" xlink:href="#a"/><linearGradient id="d" x1="69.3" y1="17.02" x2="69.3" y2="28.05" gradientTransform="matrix(1, 0, 0, -1, 0, 50.91)" gradientUnits="userSpaceOnUse"><stop offset="0" stop-color="#e8450b"/><stop offset="0.09" stop-color="#e95208"/><stop offset="0.24" stop-color="#eb5d05"/><stop offset="0.44" stop-color="#ec6402"/><stop offset="1" stop-color="#ec6602"/></linearGradient><linearGradient id="e" x1="88.48" y1="17.02" x2="88.48" y2="28.05" xlink:href="#d"/><linearGradient id="f" x1="107.7" y1="17.02" x2="107.7" y2="28.14" xlink:href="#d"/><linearGradient id="g" x1="126.8" y1="16.96" x2="126.8" y2="27.98" xlink:href="#d"/><linearGradient id="h" x1="151.13" y1="16.71" x2="151.13" y2="27.92" gradientTransform="matrix(1, 0, 0, -1, 0, 50.91)" xlink:href="#a"/><linearGradient id="i" x1="414.63" y1="140.02" x2="415.02" y2="137.93" gradientTransform="translate(489.25 294.55) rotate(-162.19)" gradientUnits="userSpaceOnUse"><stop offset="0" stop-color="#6182ac"/><stop offset="0.1" stop-color="#708cb3"/><stop offset="0.52" stop-color="#adb9d3"/><stop offset="0.84" stop-color="#d2d8e7"/><stop offset="1" stop-color="#e1e4ef"/></linearGradient><linearGradient id="j" x1="-407.24" y1="218.26" x2="-406.7" y2="221.18" gradientTransform="matrix(0.98, 0.22, 0.22, -0.97, 483.19, 336.25)" gradientUnits="userSpaceOnUse"><stop offset="0" stop-color="#e1e5ef"/><stop offset="0.26" stop-color="#dce0ec"/><stop offset="0.58" stop-color="#ced4e4"/><stop offset="0.92" stop-color="#b6c1d8"/><stop offset="1" stop-color="#b0bcd4"/></linearGradient><linearGradient id="k" x1="-406.7" y1="216.48" x2="-406.17" y2="219.39" gradientTransform="matrix(0.98, 0.22, 0.22, -0.98, 483.04, 336.34)" xlink:href="#j"/><linearGradient id="l" x1="-406.94" y1="216.49" x2="-406.39" y2="219.45" gradientTransform="matrix(0.98, 0.22, 0.22, -0.98, 483.04, 336.34)" xlink:href="#j"/><linearGradient id="m" x1="-406.78" y1="216.47" x2="-406.23" y2="219.43" gradientTransform="matrix(0.98, 0.22, 0.22, -0.98, 483.04, 336.34)" xlink:href="#j"/><linearGradient id="n" x1="40.83" y1="38.76" x2="149.48" y2="38.76" gradientTransform="matrix(1, 0, 0, -1, 0, 50.91)" gradientUnits="userSpaceOnUse"><stop offset="0.01" stop-color="#02436a"/><stop offset="0.17" stop-color="#0a4871"/><stop offset="0.44" stop-color="#1d5684"/><stop offset="0.62" stop-color="#2a6192"/></linearGradient><linearGradient id="o" x1="312.74" y1="-70.88" x2="204.09" y2="-70.6" gradientTransform="matrix(-1, 0, 0, 1, 328.43, 77.93)" xlink:href="#n"/></defs><title>logo</title><path class="a" d="M3.38,33.86v-11h13.3a2.36,2.36,0,0,1,2.65,2.65V27a1.72,1.72,0,0,1-.75,1.5,1.34,1.34,0,0,1,.75,1.15v1.5a2.34,2.34,0,0,1-2.65,2.65Zm12.15-6.8a.37.37,0,0,0,.4-.4v-.75a.37.37,0,0,0-.4-.4H6.78V27Zm.4,3.8v-.75a.37.37,0,0,0-.4-.4H6.78v1.5h8.75C15.78,31.21,15.93,31.11,15.93,30.86Z"/><path class="b" d="M35.18,22.81l-9.2.05c-2.25,0-3.4.75-3.35,2.2l.05,8.85h3.4v-4.2l9.15-.05v4.2h3.4L38.58,25C38.58,23.56,37.43,22.81,35.18,22.81ZM26,27.06V26c0-.2.15-.3.5-.3l8.25-.05c.3,0,.5.1.5.3V27Z"/><path class="c" d="M42.18,22.86h13.3a2.36,2.36,0,0,1,2.65,2.65v5.7a2.36,2.36,0,0,1-2.65,2.65H42.18Zm3.45,8.4h8.75a.37.37,0,0,0,.4-.4V25.91a.37.37,0,0,0-.4-.4H45.63Z"/><path class="d" d="M74.63,27.06a2.34,2.34,0,0,1,2.65,2.65v1.5a2.36,2.36,0,0,1-2.65,2.65H61.33V31.21H73.48a.37.37,0,0,0,.4-.4v-.75a.37.37,0,0,0-.4-.4H64A2.36,2.36,0,0,1,61.33,27v-1.5A2.36,2.36,0,0,1,64,22.86h13.3v2.65H65.13a.37.37,0,0,0-.4.4v.75a.37.37,0,0,0,.4.4Z"/><polyline class="e" points="80.58 22.86 80.58 22.86 80.48 22.86 80.48 33.91 83.93 33.91 83.93 29.71 93.03 29.71 93.03 33.91 96.48 33.91 96.48 22.86 93.03 22.86 93.03 27.06 83.93 27.06 83.93 22.86"/><path class="f" d="M113.08,22.76a2.39,2.39,0,0,1,2.7,2.7v5.75a2.39,2.39,0,0,1-2.7,2.7H102.33a2.39,2.39,0,0,1-2.7-2.7V25.46a2.39,2.39,0,0,1,2.7-2.7Zm-1.15,8.45a.37.37,0,0,0,.4-.4v-5a.37.37,0,0,0-.4-.4h-8.45a.37.37,0,0,0-.4.4v5a.37.37,0,0,0,.4.4Z"/><path class="g" d="M122.23,34h-3.4V23h13.3a2.36,2.36,0,0,1,2.65,2.65v1.5a2.36,2.36,0,0,1-2.65,2.65h-9.9ZM131,27.11a.37.37,0,0,0,.4-.4V26a.37.37,0,0,0-.4-.4h-8.75v1.5H131Z"/><path class="h" d="M148.58,25.91a2,2,0,0,0-.45-.2,5.15,5.15,0,0,0-1.1-.25,13.63,13.63,0,0,0-1.6-.1,9.61,9.61,0,0,0-2.25.2,4.3,4.3,0,0,0-1.6.7,3,3,0,0,0-1,1.4,6.35,6.35,0,0,0-.25,2.1,7.91,7.91,0,0,0,.25,2,2.81,2.81,0,0,0,1,1.4,3.14,3.14,0,0,0,1.6.7,9.89,9.89,0,0,0,2.25.2,7.74,7.74,0,0,0,1.65-.15,6.36,6.36,0,0,0,1-.35,2.35,2.35,0,0,0,.45-.3V34h2V23h-2v2.9ZM148.53,31a2.34,2.34,0,0,1-.2.7,1.35,1.35,0,0,1-.35.4,1.41,1.41,0,0,1-.55.25,3.89,3.89,0,0,1-.8.1,19.21,19.21,0,0,1-2.4,0c-.35,0-.65-.1-.85-.15a1.56,1.56,0,0,1-.5-.25,2.77,2.77,0,0,1-.3-.4,1.45,1.45,0,0,1-.15-.7,6.71,6.71,0,0,1-.05-1.05,6.71,6.71,0,0,1,.05-1.05c0-.3.1-.5.15-.7a.78.78,0,0,1,.3-.4,1.17,1.17,0,0,1,.5-.25c.25-.05.5-.1.85-.15a9.65,9.65,0,0,1,1.25,0,8.47,8.47,0,0,1,1.15,0,3.48,3.48,0,0,1,.8.1,1.85,1.85,0,0,1,.55.25,1.35,1.35,0,0,1,.35.4,2.71,2.71,0,0,1,.2.75,7.76,7.76,0,0,1,.05,1.15A7,7,0,0,1,148.53,31Zm11.35.6a1,1,0,0,1-.1.45.46.46,0,0,1-.3.2,1.84,1.84,0,0,1-.85.15,12.22,12.22,0,0,1-1.45,0,15.07,15.07,0,0,1-1.6,0,2.82,2.82,0,0,1-.9-.25,1.37,1.37,0,0,1-.45-.6,2.71,2.71,0,0,1-.15-1h7.7l.05-.7v-.1a9.63,9.63,0,0,0-.05-1.2,5.4,5.4,0,0,0-.25-1,4.75,4.75,0,0,0-.5-.85,3.11,3.11,0,0,0-.9-.7,4.62,4.62,0,0,0-1.25-.45,8.07,8.07,0,0,0-1.65-.15,9.61,9.61,0,0,0-2.25.2,4.18,4.18,0,0,0-1.65.75,2.89,2.89,0,0,0-1,1.5,7.2,7.2,0,0,0-.25,2.2,5.33,5.33,0,0,0,.3,1.95,2.9,2.9,0,0,0,.95,1.35,3.63,3.63,0,0,0,1.6.7,13.91,13.91,0,0,0,2.25.2,12.5,12.5,0,0,0,2.1-.15,5,5,0,0,0,1.45-.45,1.75,1.75,0,0,0,.85-.85,3.09,3.09,0,0,0,.25-1.25v-.05l-2,.1Zm-5.7-3.2a.94.94,0,0,1,.2-.5,2.17,2.17,0,0,1,.35-.3,1.79,1.79,0,0,1,.55-.2,4,4,0,0,1,.85-.1c.35,0,.7-.05,1.15-.05a9.18,9.18,0,0,1,1.3.1,1.46,1.46,0,0,1,.8.35,1,1,0,0,1,.4.6q.08.3.15.75h-5.75A1.39,1.39,0,0,1,154.18,28.36Z"/><path class="i" d="M137.13,29.76a6.3,6.3,0,0,1-1.65,2.6c-.65.65-1.55,1.1-2,2a1.81,1.81,0,0,0,1.2,2.55,2.44,2.44,0,0,0,3.2-1,2.82,2.82,0,0,0,.2-.6,5.85,5.85,0,0,0-.15-2.8c-.25-.95-.6-1.85-.8-2.7Z"/><path class="j" d="M137.53,32.16s1.6,4.55-1.9,4.75C135.63,36.91,137.38,36.86,137.53,32.16Z"/><path class="k" d="M137.73,33.61c-.2-1.45-.35-2.25-.35-2.25s.9,2.9.35,4.15A4.25,4.25,0,0,0,137.73,33.61Z"/><path class="l" d="M133.78,34.86c-.1,0-.2,0-.3,0v.1a1.25,1.25,0,0,0,.2.9,6.78,6.78,0,0,1,0-.9A0,0,0,0,0,133.78,34.86Z"/><path class="m" d="M133.83,34.86v0a1.91,1.91,0,0,0-.05.9c.05.1.15.15.3.25a1.69,1.69,0,0,1,0-1.1A.71.71,0,0,0,133.83,34.86Z"/><path class="n" d="M135.18,33.11a4,4,0,0,0-1.65,1.65.63.63,0,0,1,.3.05A3.66,3.66,0,0,1,135.18,33.11Z"/><path class="o" d="M134.08,34.91a5.19,5.19,0,0,1,1.15-1.8h0a3.66,3.66,0,0,0-1.35,1.7C133.93,34.86,134,34.86,134.08,34.91Z"/><path class="p" d="M40.83,14.21c37.5,6.85,61-20.85,107.9,2.6l.75.3c-44.65-19.45-63.2,6.6-108.65-2.65v-.25Z"/><path class="q" d="M124.18,5.61c-37.5-6.8-61,21-107.9-2.4l-.75-.3c44.7,19.4,63.15-6.7,108.65,2.5v.2Z"/><path class="r" d="M61.83,46.06a.33.33,0,0,1,.2-.25,1,1,0,0,1,.4-.05.57.57,0,0,1,.4.15.34.34,0,0,1,.2.3c0,.7,0,1.35.1,1.9s.1,1.15.15,1.7.1,1.15.15,1.7.1,1.2.15,1.9c.2-.6.35-1.3.55-2s.4-1.45.65-2.15a15.38,15.38,0,0,1,.65-1.7c.25-.5.45-.75.7-.8a1.14,1.14,0,0,1,1,.5,8.3,8.3,0,0,1,1.05,1.55q.52,1,1,2.1c.35.75.65,1.45.9,2s.5,1.15.65,1.55.3.55.35.5a3.22,3.22,0,0,0,.15-1.3c0-.7,0-1.55-.1-2.5s-.1-1.95-.15-3-.1-2-.1-2.85c0-.2.15-.35.3-.3a.33.33,0,0,1,.35.3c0,.85.15,1.75.25,2.65s.25,1.8.35,2.75.2,1.85.25,2.75a23.42,23.42,0,0,1,0,2.65.36.36,0,0,1-.2.3.94.94,0,0,1-.45.2,1.78,1.78,0,0,1-.5.1.57.57,0,0,1-.4-.15A10.11,10.11,0,0,1,69.73,55c-.35-.65-.7-1.3-1-2s-.6-1.4-.85-2.05-.5-1.3-.7-1.8a7.35,7.35,0,0,0-.6-1.25c-.15-.3-.3-.4-.45-.35s-.15.15-.25.45-.25.7-.4,1.25-.3,1.1-.45,1.75-.3,1.35-.5,2-.35,1.35-.5,2.05-.3,1.25-.45,1.75a.38.38,0,0,1-.35.2q-.23,0-.3-.3c-.2-1.8-.45-3.6-.7-5.4C62.13,49.61,61.93,47.81,61.83,46.06Z"/><path class="r" d="M74.63,49.06a.6.6,0,0,1-.7,0,.59.59,0,0,1-.1-.7l.1-.15a.9.9,0,0,1,.45-.2.72.72,0,0,1,.35.1.43.43,0,0,1,.15.3.81.81,0,0,1-.15.45Zm-.8,1.3a.27.27,0,0,1,.15-.25.71.71,0,0,1,.3-.1.63.63,0,0,1,.3.05.39.39,0,0,1,.2.2,22.68,22.68,0,0,1,.1,2.45c0,.65,0,1.25.05,1.75a.34.34,0,0,1-.35.35.63.63,0,0,1-.3-.05.27.27,0,0,1-.15-.25,8.3,8.3,0,0,0-.1-1.2c0-.3,0-.6-.1-.9s-.05-.6-.1-.9A4.31,4.31,0,0,0,73.83,50.36Z"/><path class="r" d="M76.28,50.16c0-.1,0-.2.1-.25l.3-.15a.43.43,0,0,1,.35,0,.3.3,0,0,1,.3.15,3.88,3.88,0,0,1,.25.9l.15,1a3.32,3.32,0,0,1,1.15-1.45A5.36,5.36,0,0,1,81,49.56a.37.37,0,0,1,.3.1.26.26,0,0,1,.1.2c0,.1,0,.15-.05.2a1.09,1.09,0,0,1-.25.15,2.82,2.82,0,0,0-1.65.75,4,4,0,0,0-.9,1.35A5.69,5.69,0,0,0,78.23,54a7.5,7.5,0,0,0,0,1.5.4.4,0,0,1-.25.4.48.48,0,0,1-.5-.15,8.54,8.54,0,0,1-.4-1.45c-.1-.55-.2-1-.25-1.6s-.15-1-.25-1.45S76.38,50.36,76.28,50.16Z"/><path class="r" d="M85.43,44.71a.26.26,0,0,1,.2-.25.72.72,0,0,1,.35-.1.74.74,0,0,1,.35,0,.39.39,0,0,1,.2.2c0,.4,0,.35.1,1s.05,1.25.1,1.95l.15,2.1c.05.7.15,1.4.2,2s.2,1.25.3,1.8a5,5,0,0,0,.4,1.3,2,2,0,0,0,1,0c.25,0,.55-.1,1-.2.25,0,.35,0,.4.15s0,.25-.2.4a12.21,12.21,0,0,1-1.9.65c-.45.1-.75.05-1-.2a2.28,2.28,0,0,1-.45-1.15q-.15-.82-.3-2.25c-.2-1.35-.35-2.7-.45-4S85.53,46.06,85.43,44.71Z"/><path class="r" d="M91.13,48.31a.6.6,0,0,1-.7,0,.59.59,0,0,1-.1-.7l.1-.15a.9.9,0,0,1,.45-.2.72.72,0,0,1,.35.1.43.43,0,0,1,.15.3.81.81,0,0,1-.15.45Zm-.8,1.3a.27.27,0,0,1,.15-.25.71.71,0,0,1,.3-.1.63.63,0,0,1,.3.05.39.39,0,0,1,.2.2,22.68,22.68,0,0,1,.1,2.45c0,.65,0,1.25.05,1.75a.34.34,0,0,1-.35.35.63.63,0,0,1-.3-.05.27.27,0,0,1-.15-.25,8.3,8.3,0,0,0-.1-1.2c0-.3,0-.6-.1-.9s-.05-.6-.1-.9A4.35,4.35,0,0,0,90.33,49.61Z"/><path class="r" d="M93.08,51.71a1.45,1.45,0,0,1-.5-.4.24.24,0,0,1,0-.3.42.42,0,0,1,.3-.1,2.07,2.07,0,0,1,.6.2,7.45,7.45,0,0,1,.75-1,4.32,4.32,0,0,1,.9-.8,2.58,2.58,0,0,1,1-.4,1.25,1.25,0,0,1,.85.15,1.4,1.4,0,0,1,.75,1.1,1.41,1.41,0,0,1-.45,1,3.28,3.28,0,0,1-1.25.7,3.44,3.44,0,0,1-1.6.1c-.25.5-.25.9.1,1.15a1.61,1.61,0,0,0,1,.25,8,8,0,0,0,1.5-.15,9.58,9.58,0,0,0,1.6-.45,4.45,4.45,0,0,0,1.2-.65c.25-.15.4-.2.5,0s.1.3-.1.5a4.32,4.32,0,0,1-1,.65,10.46,10.46,0,0,1-1.5.55c-.55.15-1.1.3-1.65.4a5.48,5.48,0,0,1-1.55.05,2.4,2.4,0,0,1-1.15-.4,1.1,1.1,0,0,1-.45-1A2.09,2.09,0,0,1,93.08,51.71Zm3.65-1.3a.44.44,0,0,0,0-.55.52.52,0,0,0-.55,0,1.91,1.91,0,0,0-.85.6,10.14,10.14,0,0,0-.65.9,2,2,0,0,0,.55,0,1.42,1.42,0,0,0,.6-.2,4.4,4.4,0,0,0,.5-.3A3,3,0,0,0,96.73,50.41Z"/><path class="r" d="M100.38,42.61a.55.55,0,0,1,.65.55c0,.4.1,1.8.15,2.25,0,.65,0,.3,0,.9s.1,1.2.15,1.75.1,1,.15,1.35a1.54,1.54,0,0,1,.6-.75,1.25,1.25,0,0,1,.85-.15,4.12,4.12,0,0,1,1,.3,4.7,4.7,0,0,1,.9.6,5.76,5.76,0,0,1,.7.85,1.61,1.61,0,0,1,.3.9,1.49,1.49,0,0,1-.3,1.1,4,4,0,0,1-1,.85,5.09,5.09,0,0,1-1.3.55,7.83,7.83,0,0,1-1.35.25v.55c0,.15,0,.35,0,.6,0,.1,0,.2-.1.2a.37.37,0,0,1-.25.05.45.45,0,0,1-.25-.05.39.39,0,0,1-.2-.2l-.2-1.2c-.45,0-.65-.2-.7-.45,0-.1,0-.15.2-.2s.25-.05.4-.1c-.15-.9-.3-2-.4-3.15s-.25-2.45-.35-3.65-.15-2.05-.2-3.05a.54.54,0,0,1,.45-.65Zm1.4,9.1a3.27,3.27,0,0,0,0,.7,3.44,3.44,0,0,0,.1.65,3.14,3.14,0,0,0,1-.15,4.22,4.22,0,0,0,.85-.25,4,4,0,0,0,.65-.3,1.38,1.38,0,0,0,.4-.3,1.2,1.2,0,0,0,.2-.9,2.08,2.08,0,0,0-.4-.9,2,2,0,0,0-.8-.6,1.44,1.44,0,0,0-.9-.15,1.09,1.09,0,0,0-.75.6A3.51,3.51,0,0,0,101.78,51.71Z"/><path class="r" d="M106.73,51.11a1.45,1.45,0,0,1-.5-.4.24.24,0,0,1,0-.3.42.42,0,0,1,.3-.1,2.07,2.07,0,0,1,.6.2,7.45,7.45,0,0,1,.75-1,4.32,4.32,0,0,1,.9-.8,2.58,2.58,0,0,1,1-.4,1.25,1.25,0,0,1,.85.15,1.4,1.4,0,0,1,.75,1.1,1.41,1.41,0,0,1-.45,1,3.28,3.28,0,0,1-1.25.7,3.44,3.44,0,0,1-1.6.1c-.25.5-.25.9.1,1.15a1.61,1.61,0,0,0,1,.25,8,8,0,0,0,1.5-.15,9.58,9.58,0,0,0,1.6-.45,4.45,4.45,0,0,0,1.2-.65c.25-.15.4-.2.5,0s.1.3-.1.5a4.32,4.32,0,0,1-1,.65,10.46,10.46,0,0,1-1.5.55c-.55.15-1.1.3-1.65.4a5.48,5.48,0,0,1-1.55,0,2.4,2.4,0,0,1-1.15-.4,1.1,1.1,0,0,1-.45-1A1.45,1.45,0,0,1,106.73,51.11Zm3.6-1.3a.44.44,0,0,0,0-.55.52.52,0,0,0-.55,0,1.91,1.91,0,0,0-.85.6,10.14,10.14,0,0,0-.65.9,2,2,0,0,0,.55,0,1.42,1.42,0,0,0,.6-.2,4.4,4.4,0,0,0,.5-.3A1.51,1.51,0,0,0,110.33,49.81Z"/><path class="r" d="M113.53,48.71a.5.5,0,0,1,.25-.2,1,1,0,0,1,.4,0,.72.72,0,0,1,.35.1.27.27,0,0,1,.15.25,5.83,5.83,0,0,0,0,1.6q.08.83.15,1.35c.1-.2.2-.5.3-.75a6.22,6.22,0,0,1,.9-1.6,1.4,1.4,0,0,1,.65-.45.68.68,0,0,1,.75.25,5.76,5.76,0,0,1,.7,1c.2.4.4.8.65,1.25a2.62,2.62,0,0,0,.65.9c0,.1.1.15,0,.25a.69.69,0,0,1-.15.2.63.63,0,0,1-.3,0,.43.43,0,0,1-.3-.15,2.42,2.42,0,0,1-.45-.65c-.15-.3-.3-.65-.45-1s-.3-.55-.45-.8-.3-.3-.45-.25-.35.25-.5.6-.35.7-.5,1.05-.35.75-.5,1.1a1.49,1.49,0,0,1-.55.65h-.2s-.1-.05-.2-.15a3.1,3.1,0,0,1-.5-1,5.48,5.48,0,0,1-.3-1.3,12.31,12.31,0,0,1-.1-1.3A1.77,1.77,0,0,1,113.53,48.71Z"/><path class="r" d="M124.63,54.16l.1.5a.37.37,0,0,0,.3.3.27.27,0,0,0,.3-.2v0h0a.23.23,0,0,0,0-.25c0-.1,0-.2,0-.3v0h0a9.17,9.17,0,0,0,2.05-.4,8.16,8.16,0,0,0,2.15-.9,4.71,4.71,0,0,0,1.6-1.35,2.18,2.18,0,0,0,.45-1.75,1.85,1.85,0,0,0-.7-1.2,4.08,4.08,0,0,0-1.3-.7,8.33,8.33,0,0,0-1.45-.3,11.37,11.37,0,0,0-1.2,0h-.2l.2-.1a2.9,2.9,0,0,0,.75-.65,10,10,0,0,0,.7-.8,2.38,2.38,0,0,0,.4-.9,1.39,1.39,0,0,0-.05-.9,1.89,1.89,0,0,0-.6-.8,3.22,3.22,0,0,0-1-.55,2.92,2.92,0,0,0-1.15-.1,1.93,1.93,0,0,0-1,.4l-.1,0,0-.6a.27.27,0,0,0-.15-.25.94.94,0,0,0-.4-.1.42.42,0,0,0-.35.1.27.27,0,0,0-.15.25v1.4a10.53,10.53,0,0,0,0,2.2c0,.8.15,1.5.25,2.15v.05h-.15a.15.15,0,0,0-.1,0c-.25.15-.2.3-.15.4a.45.45,0,0,0,.4.25l0,0,.1-.05.5,4.75h-1c-.35,0-.4.1-.45.15s0,.25.15.4.45,0,.6.1h.65Zm.7-.75v0l-.3-4.75h0a8.28,8.28,0,0,1,1.65-.2,9.35,9.35,0,0,1,1.7.15,4.24,4.24,0,0,1,1.35.5,1.33,1.33,0,0,1,.65,1,1.49,1.49,0,0,1-.4,1.15,4.9,4.9,0,0,1-1.2,1,12.65,12.65,0,0,1-1.65.8,7.57,7.57,0,0,1-1.7.4Zm-.35-5.7-.1-2.7c0-.4,0-.7,0-.95a1.2,1.2,0,0,1,0-.45h0a2.47,2.47,0,0,1,2.35.5,1,1,0,0,1,.3,1,2.69,2.69,0,0,1-.5,1c-.25.3-.55.6-.85.9s-.6.45-.8.6Z"/><path class="r" d="M136.53,48c.1.55.2,1.05.25,1.55s.15.9.25,1.3a5.31,5.31,0,0,0,.25.9c.05.25.15.4.2.4s.1.15.1.25a.26.26,0,0,1-.1.2.36.36,0,0,1-.5,0,2.22,2.22,0,0,1-.65-1c-.15-.45-.25-.9-.4-1.35a5.61,5.61,0,0,1-.9,1.4,2,2,0,0,1-1.45.55A3.8,3.8,0,0,1,133,52a1.76,1.76,0,0,1-.45-.35,1.85,1.85,0,0,1-.35-1.35,5.1,5.1,0,0,1,.55-1.45,4,4,0,0,1,1.1-1.15,3,3,0,0,1,1.25-.55c0-.15,0-.3,0-.45a1.38,1.38,0,0,1,0-.45c0-.1.05-.15.15-.2a.63.63,0,0,1,.3,0,1,1,0,0,1,.35,0,1.09,1.09,0,0,1,.25.15,2.46,2.46,0,0,1,.3.85C136.48,47.31,136.53,47.66,136.53,48Zm-3.2,3.25a.61.61,0,0,0,.65.05,1.5,1.5,0,0,0,.6-.55,3.73,3.73,0,0,0,.5-1,5.48,5.48,0,0,0,.3-1.3,1.52,1.52,0,0,0-1.25.25,2.59,2.59,0,0,0-.8.85,1.86,1.86,0,0,0-.25,1A.7.7,0,0,0,133.33,51.26ZM134,45q-.37.23-.6,0c-.2-.15-.2-.35-.1-.6l0,0a.54.54,0,0,1,.35-.15.42.42,0,0,1,.3.1.3.3,0,0,1,.15.3c0,.1,0,.25-.15.4Zm1.85-.35a.3.3,0,0,1-.15.3.5.5,0,0,1-.6,0c-.1,0-.15-.2-.2-.35v-.05a.57.57,0,0,1,.15-.4.42.42,0,0,1,.35-.1.43.43,0,0,1,.3.15A.81.81,0,0,1,135.88,44.61Z"/><path class="r" d="M142.23,40.91a.68.68,0,0,1,.7.7,12.12,12.12,0,0,1,0,1.35c0,.8,0,1-.05,1.9s-.1,1.55-.2,2.2c.1,1.35.25,2.65.45,4a10.43,10.43,0,0,0,.8,2.85c0,.15-.05.25-.25.35a.81.81,0,0,1-.45.15c-.1,0-.25-.1-.3-.35s-.2-.55-.3-1-.35-1.7-.4-2.2-.15-1-.2-1.5a7.94,7.94,0,0,1-.45,1,4.53,4.53,0,0,1-.65,1,1.78,1.78,0,0,1-.8.6,1.09,1.09,0,0,1-.95-.1,2,2,0,0,1-.7-.75,2.38,2.38,0,0,1-.35-1,2.27,2.27,0,0,1,.1-1.15,2.07,2.07,0,0,1,.6-1,2.67,2.67,0,0,1,.5-.35,3.87,3.87,0,0,1,.8-.35A6,6,0,0,1,141,47a1.43,1.43,0,0,1,.8,0c-.05-.95-.1-1.85-.2-2.65s-.1-1-.15-1.75v-.9a.75.75,0,0,1,.75-.8Zm-2.1,9.9c.15,0,.3-.15.5-.35a4.87,4.87,0,0,0,.5-.75,6,6,0,0,0,.4-1,9.72,9.72,0,0,0,.25-1,.69.69,0,0,1-.2-.15q0-.08-.45,0a4.15,4.15,0,0,0-.9.25,3.1,3.1,0,0,0-.85.55,1.51,1.51,0,0,0-.3,1.35,1.47,1.47,0,0,0,.15.5,1.35,1.35,0,0,0,.35.4A.5.5,0,0,0,140.13,50.81Z"/><path class="r" d="M144.48,48.91a1.45,1.45,0,0,1-.5-.4.24.24,0,0,1,0-.3.42.42,0,0,1,.3-.1,2.07,2.07,0,0,1,.6.2,7.45,7.45,0,0,1,.75-1,4.32,4.32,0,0,1,.9-.8,2.58,2.58,0,0,1,1-.4,1.25,1.25,0,0,1,.85.15,1.4,1.4,0,0,1,.75,1.1,1.41,1.41,0,0,1-.45,1,3.28,3.28,0,0,1-1.25.7,3.44,3.44,0,0,1-1.6.1c-.25.5-.25.9.1,1.15a1.61,1.61,0,0,0,1,.25,8,8,0,0,0,1.5-.15,9.58,9.58,0,0,0,1.6-.45,4.45,4.45,0,0,0,1.2-.65c.25-.15.4-.2.5-.05s.1.3-.1.5a4.32,4.32,0,0,1-1,.65A10.46,10.46,0,0,1,149,51c-.55.15-1.1.3-1.65.4a5.48,5.48,0,0,1-1.55,0,2.4,2.4,0,0,1-1.15-.4,1.1,1.1,0,0,1-.45-.95A1.45,1.45,0,0,1,144.48,48.91Zm3.6-1.3a.53.53,0,0,0,0-.55.52.52,0,0,0-.55-.05,1.91,1.91,0,0,0-.85.6,10.14,10.14,0,0,0-.65.9,2,2,0,0,0,.55,0,2.82,2.82,0,0,0,.6-.2,4.4,4.4,0,0,0,.5-.3A1.51,1.51,0,0,0,148.08,47.61Z"/><path class="r" d="M150.93,46.26c0-.1,0-.2.1-.25l.3-.15a.43.43,0,0,1,.35,0,.3.3,0,0,1,.3.15,3.88,3.88,0,0,1,.25.9l.15,1.05a3.32,3.32,0,0,1,1.15-1.45,5.36,5.36,0,0,1,2.15-.85.37.37,0,0,1,.3.1.26.26,0,0,1,.1.2c0,.1,0,.15-.05.2a1.09,1.09,0,0,1-.25.15,2.82,2.82,0,0,0-1.65.75,4,4,0,0,0-.9,1.35,5.69,5.69,0,0,0-.35,1.65,7.5,7.5,0,0,0,0,1.5.4.4,0,0,1-.25.4.48.48,0,0,1-.5-.15,8.54,8.54,0,0,1-.4-1.45c-.1-.55-.2-1-.25-1.6s-.15-1-.25-1.45S151,46.51,150.93,46.26Z"/><path class="r" d="M155.43,51.31a.46.46,0,0,1-.2.3.5.5,0,0,1-.6,0c-.1,0-.15-.2-.2-.35v-.2a.57.57,0,0,1,.15-.4.42.42,0,0,1,.35-.1.43.43,0,0,1,.3.15.49.49,0,0,1,.15.4Z"/><rect class="s" x="162.23" y="19.96" width="6" height="5.7"/><g class="t"><path class="r" d="M164.82,19.87a2.58,2.58,0,0,1,1.27.34,2.37,2.37,0,0,1,1,.95,2.61,2.61,0,0,1,.35,1.29,2.73,2.73,0,0,1-.34,1.29,2.44,2.44,0,0,1-1,1,2.58,2.58,0,0,1-2.56,0,2.44,2.44,0,0,1-1-1,2.58,2.58,0,0,1,0-2.58,2.37,2.37,0,0,1,1-.95A2.58,2.58,0,0,1,164.82,19.87Zm0,.43a2.18,2.18,0,0,0-1.06.28,1.93,1.93,0,0,0-.8.8,2.08,2.08,0,0,0-.29,1.07,2.17,2.17,0,0,0,.28,1.07,2.05,2.05,0,0,0,.8.8,2.18,2.18,0,0,0,2.14,0,2.05,2.05,0,0,0,.8-.8,2.15,2.15,0,0,0,0-2.14,1.93,1.93,0,0,0-.8-.8A2.18,2.18,0,0,0,164.82,20.3Zm-1.13,3.58V21.1h.95a2.37,2.37,0,0,1,.71.08.67.67,0,0,1,.35.27.69.69,0,0,1,.13.41.7.7,0,0,1-.22.52.82.82,0,0,1-.57.26,1,1,0,0,1,.23.14,3.25,3.25,0,0,1,.41.56l.34.54h-.55l-.24-.44a2.23,2.23,0,0,0-.47-.64.53.53,0,0,0-.36-.1h-.26v1.18Zm.45-1.56h.54a.84.84,0,0,0,.53-.12.37.37,0,0,0,.14-.31.43.43,0,0,0-.06-.22.45.45,0,0,0-.19-.14,1.54,1.54,0,0,0-.45-.05h-.51Z"/></g></svg>